<?xml version="1.0" ?>

<!-- Uploaded to: SVG Repo, www.svgrepo.com, Generator: SVG Repo Mixer Tools -->
<svg width="800px" height="800px" viewBox="0 0 32 32" id="svg5" version="1.1" xmlns="http://www.w3.org/2000/svg" xmlns:svg="http://www.w3.org/2000/svg">

<defs id="defs2"/>

<g id="layer1" transform="translate(-204,-52)">

<path d="m 229.375,53.988287 c -0.72661,0.01749 -1.45694,0.210816 -2.12695,0.597646 -2.14404,1.237874 -2.8863,4.010272 -1.64844,6.1543 0.0207,0.03577 0.043,0.07045 0.0644,0.105515 l -5.31055,4.927737 c -1.49788,-1.113291 -3.35013,-1.77344 -5.35351,-1.773439 -0.56859,3e-6 -1.12432,0.05469 -1.66407,0.156248 l -1.65234,-3.916017 c 1.3276,-1.060458 1.72483,-2.979634 0.85156,-4.492182 -0.96177,-1.665843 -3.12126,-2.243027 -4.7871,-1.281252 -1.66585,0.96178 -2.24499,3.119311 -1.28321,4.785155 0.7021,1.216081 2.04281,1.853423 3.36328,1.734371 l 1.58594,3.761727 c -3.1815,1.389704 -5.41406,4.567013 -5.41406,8.251951 -1e-5,2.80419 1.29264,5.31434 3.31249,6.9668 a 1,1 0 0 0 0.48242,0.36523 c 1.47125,1.04807 3.26712,1.66797 5.20509,1.66797 2.00493,0 3.85893,-0.66054 5.35742,-1.7754 a 1,1 0 0 0 0.22849,-0.17776 c 0.87949,-0.69891 1.6249,-1.55794 2.19336,-2.5332 l 4.22266,0.96289 c -0.006,0.60475 0.14091,1.21771 0.46288,1.77538 0.96178,1.66586 3.12127,2.24303 4.78712,1.28125 1.66584,-0.96177 2.24498,-3.1193 1.2832,-4.78515 -0.96178,-1.66585 -3.12126,-2.24498 -4.78711,-1.2832 -0.48199,0.27828 -0.87119,0.65793 -1.16015,1.0957 l -3.98828,-0.91211 c 0.25897,-0.83794 0.40039,-1.72712 0.40039,-2.64844 -1e-5,-0.37052 -0.0245,-0.73477 -0.0684,-1.09375 l 3.53516,-0.62695 c 0.96204,1.6643 3.12008,2.24259 4.78516,1.28126 1.66585,-0.96178 2.24302,-3.121267 1.28124,-4.787119 -0.96177,-1.665843 -3.1193,-2.243028 -4.78515,-1.281248 -1.05446,0.608795 -1.67201,1.696523 -1.74023,2.835937 l -3.53906,0.628899 c -0.3756,-1.040572 -0.93808,-1.992921 -1.64649,-2.816402 l 5.24609,-4.869138 c 1.37462,0.877644 3.18154,0.984393 4.6836,0.117183 2.14403,-1.23786 2.88825,-4.008297 1.65038,-6.152342 -0.85102,-1.474019 -2.42878,-2.286537 -4.02734,-2.24804 z m 0.0606,1.990227 c 0.88719,-0.0251 1.7549,0.427341 2.23437,1.257816 0.69743,1.207976 0.29,2.7225 -0.91796,3.419915 -1.20798,0.697425 -2.7225,0.291968 -3.41993,-0.916008 -0.69742,-1.207966 -0.29195,-2.724452 0.91602,-3.421872 0.37749,-0.217945 0.78423,-0.328441 1.1875,-0.339851 z m -19.97266,0.01367 c 0.53276,-0.01671 1.05213,0.254143 1.3418,0.755866 0.42134,0.729783 0.17705,1.633346 -0.55274,2.054686 -0.72978,0.42134 -1.63334,0.179004 -2.05468,-0.550778 -0.42134,-0.729773 -0.179,-1.631396 0.55078,-2.052736 0.22806,-0.13167 0.47267,-0.199456 0.71484,-0.207038 z m 5.53711,10.007817 c 3.87784,4e-6 7,3.122164 7.00001,6.999997 -1e-5,1.77485 -0.65516,3.38974 -1.73633,4.6211 -0.61002,-1.111 -1.56136,-2.00863 -2.71094,-2.55078 0.88222,-0.73572 1.44726,-1.84076 1.44726,-3.07032 0,-2.197278 -1.80271,-4.000002 -4,-3.999997 -2.19728,4e-6 -4,1.802718 -4,3.999997 0,1.22956 0.56504,2.3346 1.44727,3.07031 -1.14939,0.54242 -2.10105,1.43958 -2.71094,2.55079 -1.08117,-1.23137 -1.73634,-2.84624 -1.73633,-4.62109 0,-3.877845 3.12216,-7.000006 7,-7.000007 z m 15.4629,2.017577 c 0.53226,-0.01642 1.05016,0.254136 1.33983,0.75586 0.42134,0.729782 0.17901,1.633344 -0.55078,2.05468 -0.72978,0.42134 -1.63334,0.17901 -2.05468,-0.550774 -0.42134,-0.729782 -0.17901,-1.633344 0.55078,-2.054684 0.22806,-0.13167 0.4729,-0.197629 0.71485,-0.205082 z M 215.00005,70 c 1.11642,-10e-7 2.00001,0.883588 2,1.999998 0,1.11642 -0.88358,2 -2,2 -1.11642,0 -2,-0.88358 -2,-2 1e-5,-1.11641 0.88358,-1.999997 2,-1.999998 z m 1e-5,6.500008 c 1.67074,-10e-6 3.08932,1.0143 3.6914,2.45507 -1.07046,0.66318 -2.33451,1.04492 -3.69141,1.04492 -1.3569,0 -2.62094,-0.38176 -3.6914,-1.04492 0.60203,-1.44072 2.0209,-2.45508 3.69141,-2.45507 z m 15.46289,0.49023 c 0.53225,-0.0164 1.05017,0.25608 1.33984,0.75781 0.42134,0.72978 0.17899,1.63335 -0.55078,2.05468 -0.72978,0.42134 -1.63336,0.17901 -2.0547,-0.55077 -0.42134,-0.72978 -0.17899,-1.63335 0.55079,-2.05469 0.22806,-0.13167 0.47289,-0.19959 0.71485,-0.20703 z" id="circle17947" style="color:#000000;fill:#FFFFFF;fill-rule:evenodd;stroke-linecap:round;stroke-linejoin:round;stroke-miterlimit:4.1;-inkscape-stroke:none"/>

</g>

</svg>